<svg id="Ebene_1" data-name="Ebene 1" xmlns="http://www.w3.org/2000/svg" viewBox="0 0 1200 800"><defs><style>.cls-1{fill:#418fde;fill-rule:evenodd;}.cls-2{fill:#fff;}</style></defs><path class="cls-1" d="M0,0H1200V800H0Z"/><path id="a" class="cls-2" d="M662.75,589.2a76.4,76.4,0,0,1-9.46,8.61c-21.24-21.94-46.16-46.26-69.86-46.26-14.69,0-25.27,11.18-37.61,19.07-17.13,11-40.63,17.12-60.76,9.08-10.83-4.11-21.32-10.17-29.17-20,15.85,10.93,39.58,12.4,57.48,5,19.77-8.21,39.9-19.1,62.44-19.1,33.22,0,64.79,22.47,86.94,43.63Zm-245.54-69c22,25,57.87,17,87.23,23.24,4.09.87,7.93,2.22,12.32,1.55-3.49-2.21-8.12-2.46-12.15-4-22.79-8.58-26.34-33-38.81-49.75,15.93,10.59,29.12,25.08,44,38.7,10.36,9.48,23.27,13.54,36.67,16.27-3.22,1.17-7.43.89-10.9,1.75-24.05,6-50.73,15.39-76.32,6.94-16.52-5.45-33.71-18.36-42.06-34.72Zm-35.26-58c13.72,31.06,48.19,33.5,71.11,52.55,4.36,3.63,8.68,7,13.47,9.19l.25-.25c-5.29-4.78-11-10.49-15.11-16.44-13.1-19-8.74-45.05-18.84-65.23,9.17,11,17.78,22.3,23.06,34.88,8.51,20.25,11.4,43.35,30.47,58.73-20.64-6.81-44.45-5.45-63-17.63C403.78,505.24,385.67,485.05,382,462.24Zm-14.69-62.85c2,27.37,31.12,42,45,64.49,3,4.8,6,9.76,10.33,13.64-.67-2.91-3.07-5.49-4.39-8.35a62.75,62.75,0,0,1-5.36-32.31c1.35-14,7.18-26.95,4.94-41.66,12,25.85,8.12,58.17,15,86.11,1.53,6.19,5.29,11.6,7.61,17.45-11.76-8.95-27.18-16.89-40.1-27.07-12.49-9.85-23.33-21.39-29-36.4-4.06-10.82-5.12-23.73-4.12-35.9Zm.81-50.42c1.4-6.11,2.48-12.43,5.14-18-5,25.82,12.14,44.47,18,66.81,2.21,8.41,3,17.36,6.37,25.21.31.17.59-.16.78-.41-8.47-23.77,3.95-45.74,16.05-64.48,3.18-4.92,4.71-10.66,6.2-16.46,1.31,10.76-1,23.22-3,34.32-2.57,14.3-7.45,27.7-11.34,41.49-2.55,8.62-1.88,18.34-.57,27.37l-1.23-1c-9-16.63-26.78-29.63-32.15-47.78-4.29-14.51-7.26-31.27-4.29-47Zm9.5-27.77c0-19.54,7.61-35.48,19-50,.33-.16.57-.49,1-.42-12.56,19.11-1.12,43.23-2.74,64.9l-1.66,22.25c.25.16.25.83.83.57a61.78,61.78,0,0,0,1.4-7.68c3-17.93,18.77-30.41,32.13-43.07a28.55,28.55,0,0,0,7-10.34,83,83,0,0,1-7.61,26.21c-10.28,20.81-30.13,37.6-33.71,61.25-1.73-22.66-15.61-39.51-15.61-63.64Zm33.11-65.91c6.32-7,13.4-12.46,21.83-14.61C416.14,251.93,417,272,412,288.86c-1.83,6.15-4.53,11.91-6,18.26l.42.33A53.93,53.93,0,0,1,420,287.62c11.51-10.86,28.82-17.43,34.51-33.32-.26,22.08-19.08,38.86-36.26,51.84A62.67,62.67,0,0,0,400,328a81.39,81.39,0,0,0,.43-17.13c-1.77-19.28-2.91-40.9,10.3-55.56Zm66.43-37.11c-12.14,10.65-20.25,24.37-29.58,36.71-7.76,10.25-18.41,16.61-27.57,25.21,5-10.25,5.86-22,12.14-31.93,10.73-17,28.47-23.55,45-30Z"/><path id="a-2" data-name="a" class="cls-2" d="M537.25,589.2a76.4,76.4,0,0,0,9.46,8.61c21.23-21.94,46.16-46.26,69.86-46.26,14.69,0,25.27,11.18,37.61,19.07,17.13,11,40.62,17.12,60.76,9.08,10.83-4.11,21.32-10.17,29.16-20-15.84,10.93-39.58,12.4-57.47,5-19.77-8.21-39.9-19.1-62.44-19.1-33.22,0-64.79,22.47-86.94,43.63Zm245.54-69c-22,25-57.87,17-87.24,23.24-4.08.87-7.92,2.22-12.31,1.55,3.49-2.21,8.12-2.46,12.15-4,22.78-8.58,26.34-33,38.8-49.75-15.92,10.59-29.12,25.08-44,38.7-10.36,9.48-23.27,13.54-36.67,16.27,3.22,1.17,7.43.89,10.9,1.75,24.05,6,50.72,15.39,76.32,6.94,16.52-5.45,33.71-18.36,42.06-34.72Zm35.26-58c-13.72,31.06-48.2,33.5-71.12,52.55-4.35,3.63-8.67,7-13.46,9.19l-.25-.25c5.29-4.78,11-10.49,15.11-16.44,13.1-19,8.74-45.05,18.84-65.23-9.18,11-17.78,22.3-23.07,34.88-8.5,20.25-11.39,43.35-30.46,58.73,20.64-6.81,44.45-5.45,63-17.63C796.22,505.24,814.32,485.05,818.05,462.24Zm14.69-62.85c-2,27.37-31.12,42-45,64.49-3,4.8-6,9.76-10.33,13.64.67-2.91,3.07-5.49,4.39-8.35a62.85,62.85,0,0,0,5.36-32.31c-1.36-14-7.18-26.95-4.95-41.66-12,25.85-8.11,58.17-15,86.11-1.53,6.19-5.29,11.6-7.61,17.45,11.76-8.95,27.18-16.89,40.1-27.07,12.49-9.85,23.33-21.39,29-36.4,4.06-10.82,5.12-23.73,4.12-35.9ZM831.93,349c-1.41-6.11-2.48-12.43-5.14-18,5,25.82-12.14,44.47-18,66.81-2.21,8.41-3,17.36-6.37,25.21-.31.17-.59-.16-.79-.41,8.48-23.77-3.94-45.74-16-64.48-3.18-4.92-4.72-10.66-6.2-16.46-1.31,10.76,1,23.22,3,34.32,2.56,14.3,7.45,27.7,11.33,41.49,2.56,8.62,1.89,18.34.57,27.37l1.24-1c9-16.63,26.78-29.63,32.15-47.78,4.29-14.51,7.26-31.27,4.29-47Zm-9.5-27.77c0-19.54-7.61-35.48-19-50-.33-.16-.57-.49-1-.42,12.57,19.11,1.13,43.23,2.75,64.9l1.65,22.25c-.24.16-.24.83-.83.57a65.7,65.7,0,0,1-1.4-7.68c-3-17.93-18.77-30.41-32.12-43.07a28.55,28.55,0,0,1-7-10.34,83,83,0,0,0,7.61,26.21c10.28,20.81,30.13,37.6,33.7,61.25,1.73-22.66,15.62-39.51,15.62-63.64Zm-33.12-65.91c-6.31-7-13.39-12.46-21.82-14.61C783.86,251.93,783,272,788,288.86c1.83,6.15,4.52,11.91,6,18.26l-.42.33A53.93,53.93,0,0,0,780,287.62c-11.51-10.86-28.82-17.43-34.51-33.32.26,22.08,19.07,38.86,36.26,51.84A62.67,62.67,0,0,1,800.05,328a81.39,81.39,0,0,1-.43-17.13c1.77-19.28,2.91-40.9-10.31-55.56Zm-66.42-37.11c12.14,10.65,20.25,24.37,29.58,36.71,7.76,10.25,18.41,16.61,27.57,25.21-4.95-10.25-5.86-22-12.14-31.93-10.73-17-28.48-23.55-45-30Z"/><path class="cls-2" d="M748.33,438.85l-3.58-2A161.51,161.51,0,0,1,715,479.2l-21-21a131.1,131.1,0,0,0,24.65-35.57l-3.57-1.95a127.66,127.66,0,0,1-23.93,34.67l-19-19a100.06,100.06,0,0,0,19.28-28.59L688,405.88a96.35,96.35,0,0,1-18.59,27.69l-21-21a66.15,66.15,0,0,0,13.41-21l-3.55-1.93a62.54,62.54,0,0,1-12.68,20.1l-19-19a35.38,35.38,0,0,0,9-21.76h27a62,62,0,0,1-4.25,20.7l3.55,1.93A66.27,66.27,0,0,0,666.48,369h29.71A95.63,95.63,0,0,1,688,405.89l3.54,1.93A99.84,99.84,0,0,0,700.16,369h26.91a126.14,126.14,0,0,1-11.94,51.77l3.58,1.95A130.54,130.54,0,0,0,731,369h29.72a160,160,0,0,1-16,67.94l3.58,2a165.44,165.44,0,0,0,4.49-133.68l-3.69,1.58A160.18,160.18,0,0,1,760.76,365H731.05a130.75,130.75,0,0,0-9.24-46.49l-3.65,1.57A126.61,126.61,0,0,1,727.07,365h-26.9a100.14,100.14,0,0,0-6.75-34.29l-3.65,1.57A96.18,96.18,0,0,1,696.2,365H666.48a66.28,66.28,0,0,0-4-21l-3.65,1.57A62.42,62.42,0,0,1,662.51,365h-27a35.33,35.33,0,0,0-9-21.76l19.06-19.06a62.13,62.13,0,0,1,13.2,21.41l3.65-1.57a66.21,66.21,0,0,0-14-22.65l21-21a95.78,95.78,0,0,1,20.35,31.92l3.65-1.57a99.62,99.62,0,0,0-21.19-33.16l19-19a126.56,126.56,0,0,1,26.91,41.56l3.65-1.57a130.62,130.62,0,0,0-27.75-42.79l21-21a160.42,160.42,0,0,1,34.06,52.07l3.69-1.58A165.58,165.58,0,0,0,661.55,214l-1.46,3.73a160.29,160.29,0,0,1,52.17,34.11l-21,21a130.86,130.86,0,0,0-42-27.42l-1.45,3.69a126.86,126.86,0,0,1,40.67,26.57l-19,19A100,100,0,0,0,638,274.22l-1.46,3.69a96,96,0,0,1,30.12,19.65l-21,21a66.32,66.32,0,0,0-20-13l-1.45,3.7a62.61,62.61,0,0,1,18.62,12.1l-19.06,19.06a35.37,35.37,0,0,0-21.77-9v-27a62.42,62.42,0,0,1,22.21,4.81l1.45-3.7A66.27,66.27,0,0,0,602,300.5V270.78a96.2,96.2,0,0,1,34.53,7.13l1.45-3.69a100.18,100.18,0,0,0-36-7.41V239.89a127.08,127.08,0,0,1,45.81,9.26l1.45-3.69A130.76,130.76,0,0,0,602,235.92V206.2a160.61,160.61,0,0,1,58.12,11.59l1.46-3.73a164.86,164.86,0,0,0-135.3,5.61l1.81,3.46A160,160,0,0,1,598,206.21v29.72a130.06,130.06,0,0,0-56.12,13.6l1.81,3.46A126.46,126.46,0,0,1,598,239.89V266.8a99.7,99.7,0,0,0-41.81,10.08l1.81,3.47a95.72,95.72,0,0,1,40-9.58v29.72a66.19,66.19,0,0,0-26.2,6.24l1.83,3.49A62.11,62.11,0,0,1,598,304.46v27a35.54,35.54,0,0,0-11.85,2.73l1.82,3.49a31.75,31.75,0,1,1-10.4,6.93,31.53,31.53,0,0,1,10.4-6.93l-1.82-3.49a35.69,35.69,0,0,0-9.91,6.29l-19.07-19.07a62.52,62.52,0,0,1,16.46-11.16l-1.83-3.48a66.52,66.52,0,0,0-17.42,11.85l-21-21A96.15,96.15,0,0,1,558,280.35l-1.81-3.47a100.66,100.66,0,0,0-25.61,17.89l-19.06-19.06A127,127,0,0,1,543.68,253l-1.8-3.46A131.75,131.75,0,0,0,508.75,273l-21.06-21.06a161.18,161.18,0,0,1,40.37-28.76l-1.81-3.46a165.85,165.85,0,0,0-74.12,74.61l3.46,1.87a160.82,160.82,0,0,1,29.3-41.45l21.05,21.06a131.56,131.56,0,0,0-24.14,34.55l3.44,1.86a127.14,127.14,0,0,1,23.47-33.65l19.06,19.06A100.27,100.27,0,0,0,509,325l3.44,1.86a96,96,0,0,1,18.08-26.52l21,21a66.77,66.77,0,0,0-12.86,19.67l3.48,1.88a62.19,62.19,0,0,1,12.17-18.77l19.07,19.07a35.47,35.47,0,0,0-9,21.76h-27a62.19,62.19,0,0,1,4.74-22.06l-3.48-1.88A66.15,66.15,0,0,0,533.48,365H503.76a95.93,95.93,0,0,1,8.7-38.13L509,325a99.66,99.66,0,0,0-9.21,40H472.88a126.67,126.67,0,0,1,12.36-52.83l-3.44-1.86A130.25,130.25,0,0,0,468.92,365H439.2a159.9,159.9,0,0,1,16.39-68.86l-3.46-1.86a165,165,0,0,0-10.32,119.15l3.89-1A161.27,161.27,0,0,1,439.2,369h29.71a131.55,131.55,0,0,0,5.63,36.22l3.85-1A127.32,127.32,0,0,1,472.88,369h26.91a100.66,100.66,0,0,0,4.75,28.66l3.86-1A96.45,96.45,0,0,1,503.76,369h29.72a66.72,66.72,0,0,0,3.82,20.41l3.86-1A62.61,62.61,0,0,1,537.45,369h27a35.26,35.26,0,0,0,9,21.77L554.36,409.8a62.45,62.45,0,0,1-13.2-21.39l-3.86,1a66.24,66.24,0,0,0,14.25,23.23l-21,21a95.78,95.78,0,0,1-22.13-36.95l-3.86,1a99.64,99.64,0,0,0,23.19,38.79l-19,19a126.4,126.4,0,0,1-30.31-51.23l-3.85,1a130.24,130.24,0,0,0,31.36,53.07l-21,21a160,160,0,0,1-39.18-66.82l-3.89,1a165.58,165.58,0,0,0,87.1,102.32l2-3.5a160.87,160.87,0,0,1-43.19-30.17l21-21a131.15,131.15,0,0,0,36.84,25.2l2-3.47a127.16,127.16,0,0,1-36-24.54l19-19a100,100,0,0,0,30.24,20l2-3.47a96,96,0,0,1-29.39-19.34l21-21a66.14,66.14,0,0,0,23.13,14.22l2-3.51a62.39,62.39,0,0,1-22.31-13.51l19.06-19.07a35.25,35.25,0,0,0,21.76,9v27a62.41,62.41,0,0,1-18.51-3.4l-2,3.51a66.44,66.44,0,0,0,20.5,3.86v29.71a95.84,95.84,0,0,1-35.25-7.42l-2,3.47A100,100,0,0,0,598,467.2v26.9a126.57,126.57,0,0,1-50.49-11.28l-2,3.48A130.5,130.5,0,0,0,598,498.07v29.72a160.32,160.32,0,0,1-67.11-15.51l-2,3.49a165.29,165.29,0,0,0,145.33-1.6l-1.88-3.65A159.68,159.68,0,0,1,602,527.79V498.08a130.47,130.47,0,0,0,56.81-13.88l-1.85-3.6a126.2,126.2,0,0,1-55,13.5V467.19a99.69,99.69,0,0,0,42.66-10.44l-1.85-3.58A95.52,95.52,0,0,1,602,463.22V433.51a66.13,66.13,0,0,0,27.21-6.7l-1.83-3.56A62.15,62.15,0,0,1,602,429.54v-27a35.35,35.35,0,0,0,21.77-9l19,19a62.83,62.83,0,0,1-15.43,10.65l1.83,3.55a66.5,66.5,0,0,0,16.43-11.38l21,21a96.32,96.32,0,0,1-23.8,16.76l1.85,3.58a100.71,100.71,0,0,0,24.8-17.49l19,19a127.41,127.41,0,0,1-31.48,22.36l1.85,3.6a131.06,131.06,0,0,0,32.48-23.11l21,21a161.55,161.55,0,0,1-39.85,28.47l1.88,3.65a165.61,165.61,0,0,0,74.09-75.28Z"/><path class="cls-2" d="M608.42,328.87l.05,1.19,1-.05-.06-1.18ZM607,327.24h1.33v1H607Zm-1.23-.18.14-1-1.16-.16-.14,1Zm-2.15-.51-1.16-.17.14-1,1.16.17ZM594,325.21h1.33v1H594Zm-1.74,2.19.14-1-1.15-.17-.14,1Zm-1,1.36-1.33-.34.24-1,1.34.34ZM588.84,330l-.16-1,1-.16.17,1ZM458.35,435.72h1l-.17-2.53-1.33-.51v-.84H457v1.68h1.33Zm10.31,7.41,1.16.86,1.17,2.52-.67,1.18L468.5,446l-1.34-1.86-.66-1.52-1.17-3,2.49,1.17Zm39.56,50.62-1.16.68-.67-1-1.66-.51-.16-1.52-1.34-2,2,.34,2.16,1.86Zm86.61-154H593l-.33-3.71,1-.68v-1.85h-5.82l-.17-1.85.83-.51-1.33-.51-1,1.35-.33,1.52-1.67.34v.84H583v2.19l-4.66,3.88-9.3-.33c-.67,1.51-2.33-.17-2.33-.17-.33-1-2.66,0-2.66,0,0,1.85-3.16-.85-3.16-.85l-5.82-4.21c-3.32-3-8.31.84-8.48,1.68.17,2.37-3.82.51-3.82.51s-3.32-1-3.82.34-2.66,1-2.66,1l-.34.68-1.66.33-.33,1-2,.34,5-.17c1.33-.17-.5,2.87-1.33,2.7l-2.32.17-.84.84h-2.16l-1,1.36-3.15-.17s-1.83,1.52-1.66,2-.34,2-.84,2-1.49,1.51-1.16,2-1,2.19-1,2.19l-.33,1.69-1,.34v4.55l-2,1.35v2l-3,3.2.34,2.7-2.49,2.7.33,2.7-1.5.51-.33,1.18-.66,3.54,1.66.17c.83-.34.66,2.19,0,2.53s-2.5,1-1.5,1.68-2.66.51-2.66-.5-2-1.86-2.49-1.52-1.33-1.52-1.33-1.52c-1.83-1.85-7.48.17-7.48.17l-.84,2.7c-1.82.34-3,3.38-3,3.38-1.49.5-2.66,2.36-2.16,2.86s-.83.68-.83.68v3.71l-.83,1.18.16,4.05c1,0,.84,1.86.84,1.86-1.67.17-1.34,2.36-1.34,2.36l-3.48,1.18-.67,1-4.32-.17-1.16,1.18-1.17-1.18H470l-.33-.84-1.66-.34-.17-1.85-2.49.16-.5,1-2.66.16c.16,1.69-2.66,4.22-3,3.55s-2.17-2.53-1.33-2.87a20.29,20.29,0,0,1,3-.68v-1.18l-6.15-.16-.67,1-2.49.17v2.7l-1.16.33c-.84.51.16,2.37.16,2.37,1.16,1.18-.16,3-.16,3-1,1,.83,2.87.83,2.87,1.33.34-.83,1.35-.83,1.35a3.06,3.06,0,0,0,1.33,2.19,1.72,1.72,0,0,0,.66,2.53l.17,2.87,1.16.68v1.85l.66,1.18H457l-.16-4.22c-2.33-2.7,2-3.37,2.16-2.36s2,1.52,2,1.52c.33,2.53,3.16,4.05,4,1.52s1.5-1,2,.16,3.65,4.06,3.65,4.06h2.5l.33,2.36c2.83-.17,3.66.17,4.82,4.05a7.36,7.36,0,0,0,4.32,4.89l2.33-.17c0-2,2.33.34,2.33,1.35s4.49,4.89,4.49,4.89l4.48,1,4.16,3.38,3.16-.34h1.33c.83-2.87,4.82.17,5.15,1.18s3,2.7,3.33,1.86,2.16-.34,2.49,2.19,1.5,2,1.5,2l9.47-.17,3.33-2.87,8.48-.17c4.32-.17,1.66-6.07.83-6.07-1.5-1.18.5-6.08.5-6.08l-12.14-11.3c-2.83,0-.33-4.05-.33-4.05,2.16-1.35-.5-3.54-.5-3.54.33-2-1.17-4.39-1.17-4.39-3-2-2.16-5.91-2.16-5.91v-2.7c-2.49-2.36,1-2.7,1-2.7,1.16-2-.83-3.54-.83-3.54l-.17-2.19L521,401.8l-.33-7.93-6-8.6c-1.17-.34-.33-2.36-.33-2.36,1.49-.85-.34-2.87-.34-2.87l-.16-3.71,3.49-.34.83-1.35h1.66l-.17-4.39a1.87,1.87,0,0,1,2.83-1l2.32.17,1.34-2.53.33-2-1.83-.16c-2-1.18-1-5.57-1-5.57,3.16-4.73,6.82-2,6.82-2l2.33-.16c3.49,2.36.33,6.74.33,6.74-.67,1-.33,4.22-.33,4.22l.83,5.4-2.17,1.86c-1.82,1-1.82,3.37.17,3.88,1.33.16.83,3.37-1.16,1.18-3,0,1.66,2.7.33,2,3,1.52,2.33-1.35,2.33-1.35l4-3.2c1.5-1.18,4.16,2.53,4.16,3s6.64.17,6.64.17c1.83,1.18,2.5,4.22,2.5,4.22,1.83-2.36,5.65-.17,2.82,1.18,2.66,1.69,2.66,3.2,2.66,3.2,2.17-.67,2.17,1,2.17,1.52a17.37,17.37,0,0,0,.66-2.53c-2.49-1.85,3.32-2.53,1.66.85l-1,1.52,1.67,1.35.16,3.88c3.66-.34,2.66-4.9,2.66-4.9l1.66-.33c0-1.52,1.17-.68,1.17-.68-1.17-5.74,2.66-6.75,2.66-6.75,2.16-.5,2.32-5.06,2.32-5.06-1.49-.67-.66-3,1-1s-1-4-1-4l-1.33-1.18-1.82-.17-.17-1.86h-3l-.5,2.37-1.16.33-.34-.67-.5,1.85h-3l-.16-2,1.83-.51.66-1,.5-2.7h2.16l2.83-.84c.16-2.87,1.66-2.19,1.66-2.19l1,.84,1.5,1.18.17,1-1,.51-.17,1.35.5,1.85h1.33c.5-2.7,4-2.7,5-1l1-2.36c-2.33-1.18-.05-3,.62-2.19s2.2-2.2,2.2-2.2,1.17,1.52,0-.5a2.1,2.1,0,0,1,.83-3c-.33-2,2.17-1.69,2.17-1.69l.16-2.69-2.33-.18c-.49,2.37-2.49.34-1.49-.16a9.28,9.28,0,0,0,2-1.52V352.2l1-.34.17-1.68h2.49l2.16-1,.5-.84,2.33-.17,3.32-3-.33-1.34c-2,0,0-1.52,0-1.52l.33-2.53Z"/><path class="cls-2" d="M527.84,373.12l-3-.33L525,374h.83c1.32,2.36.16,8.09.16,8.09s-2,.17-2.33-.84-1.16,2.2-.5,2.7,3,0,3.16,1.86,1.5-1.18,1.5-1.18Z"/><path class="cls-2" d="M528.5,392l.34-1.52-1.17-.5.16-2.53,1-.18.16-1.18-2.5,1.69-1.66-1v4l2.67,3.54Zm.67,4.39-1.16.16-.18,1.35,1.34.17Zm-1.5,8.6-1.41.17v1.18l1.41-.17Zm2-4a.72.72,0,0,0,0-1.43h0a.71.71,0,0,0-.7.72h0A.7.7,0,0,0,529.63,401Z"/><ellipse class="cls-2" cx="530.79" cy="403.83" rx="0.71" ry="0.72"/><ellipse class="cls-2" cx="530.83" cy="384.56" rx="0.71" ry="0.72"/><path class="cls-2" d="M588.51,364v-3.2h-1l-.17-1.19-1.83-.16-.33.84h-.83l-.17,1.35h1l.16,1-.66.68-.33.84-1.33.34-3,2.87-.16,1.35-.83,1.18-1,2.53-3.5.17-.67,3,.5,2.53,3,1.19.34-1.69,1-.51.17-1.68.66-1.19,1-1.18.33-1.35,1.66-1,2-.34.83-1,.34-2,.12-1.52.71-1ZM592,371.1v-2.36l-.34-2.19-2.48-1.18-1.83,1.68-.34,2.37v1.51l-1.66.34-.33,4.56-1.33.5.17,1.69-1.83.51-1.83.5-.33,2.2-1.33.84-.67,2L577,389s1.5,2.87,2.33,1.52a3.24,3.24,0,0,1,2.16-1.52l.5-1.18,4.48.16c.34-1.85,2.5-1.18,2.5-.33s1.66.16,1.66.16l1.16-1.85h1.83l.17-2,.83-.51v-3A3.17,3.17,0,0,0,597,377l.66-.84-.33-1.18c-1.33-.51-.67-1.69.16-1.36s-1.16-1.52-1.16-1.52c-1,.85-1.82-1-1.82-1Zm2.66,20.41c-.16,2-2.66,2.7-2.66,2.7l-1.83-.5-1-.85L589,390.5l1.49-.17.34,1Zm9-10.79c.36,1.47.33-2.36,1-2.19s.17-2.36.17-2.36l-3,2.19c1.5.17,1.66,1.69,1.83,2.36Zm8.81-8.78c.66,1.52.5,3.72,3,5.4.84.57-.5,1.69-1.33,1.18S611,374.3,611,374.3v-2.19C611.45,370.76,612.16,371.29,612.45,371.94Zm2.16,50.78-1-.34-1.16.85.5.5.49.85Zm-6.32-2.19v2m25.37-5.31-.53-.86-1.32.84.52.86Zm46.78,36,1.5.68.16,2.86c2,2,8.48.34,8.48-.16s-.33-6.25-.33-6.25l-.84-.84-.16-4.22c.66-2.19-3.16-5.4-3.49-4.72s-2.5.16-2.5.84-1.32,4.05-.66,5.23-.5,1.18-.66,2.36-1.83,3.21-1.5,4.22Zm-3.66-6.75c-.32,1.28-1.49,2-2.16,1.52s.83.84,1.16,1.52a1,1,0,0,0,1.67,0c.33-.68.16-2.19.5-2.87s-1-.84-1.17-.17Zm-7.73-30.95h1.16v3.21h-1.16Zm17.21-32.48c-.72-1,3.32-2.7,4-.67s0,1.69-.67,1.52-2.32.5-3.32-.85Zm3.4-21.6,1.83.33.18-1-1.84-.34Zm-4.48.74-1.24.7-1.08-.68-.52.85,1.33.84.25.16.25-.14,1-.56.13.31.92-.38-.33-.84-.22-.53Zm6.23-39.88h-2.5s.84.34-1.49-1.85a2.28,2.28,0,0,0-3.82.5l-2.66.34V324l-1.33.51.16,1.68,1.83-.16s0,2,.5,1.18,4.66.16,4.32,2.19c-.13.83,4.16,3,3.66,5.73a2,2,0,0,1,1.66,2.54l2.83.33.83-1.68.83.17v-1l-1.83-.5-.33-5.4-1.16-.85.33-1.35-1.33-.5.67-2.2-1.17-2.36Zm7.31,17.21-1.33-.16-3,.5-1.66,3.21a4.76,4.76,0,0,1,1.49,1.68c.66,1.19,1,8.1-1,9.28s.17.51.17.51l-.33,3.71c.5,1.69,1.33.85,1.82,0s1-1,1.67-1.85a9,9,0,0,0,1.83-3.55c.16-1.18,1-3,.5-3.54s.5-2.87.5-2.87a3.33,3.33,0,0,0,0-2.7c-.67-1.35.16-2.87.66-3.54l-1.33-.68Zm2,6.89.17-1.35,1,.12-.17,1.35Zm-.06,4.66-.89-.46.5-1,.89.46Zm-1.45-13.4-.67-1.52a6.05,6.05,0,0,1,.33-2c.34-.68-.66-1.35-1.16-1.52s-.33-1.52-.5-2.19-1.32-1.18-1.32-1.18-.34-2.53-.34-3-1.49-1.18-1-1.69A12.93,12.93,0,0,1,695.9,323c.5-.33-.5-2.7.33-2.19s.83,1.35,1.16,2-.17,3,.67,3.54-.17,2.19,1.16,2.19.5,3.21.5,3.21-.34,2.36.49,2.53.34,4.22.34,4.22l-1.33-.85Zm-10.8-27.34c.5.68,1.49,1.18,1.49,1.86s-.33,1.18.67,1.35,1.66-.17,2,.67a5.6,5.6,0,0,1,.17,2.87c-.17.68.17,1.69,1,1.69s1,.17,1,.67,1-1.85,1-1.85a7.11,7.11,0,0,1-1.49-2.2,27,27,0,0,1-.83-2.69c0-.34-1.17-.68-1.66-.85s-1.34-1.69-1.34-1.69l-2,.17Zm1.66-1.51a4.87,4.87,0,0,0-1.66-1.52,4.18,4.18,0,0,0-1.83-.67,1.09,1.09,0,0,1-1-1.52c.33-.84-.5-1.18-.5-1.86s.5-.67,1.33-.16.67.67,1.33,1.52,1,1.68,1.66,1.51,1.17,1.52,1.83,1,.5,1.18.5,1.18l-1.66.51Zm-19.45,19.06c.92.93-5,.68-5,0s.5-3,2-2.53,1.66-3,1.66-3-1.33.16-.17-.51,0-1.69-.5-2.19a9,9,0,0,1-1-1.35H670c1-.68,1.32-3.88,1.32-3.88a2.62,2.62,0,0,0,3-.68,6.83,6.83,0,0,0,1,1.86c.66.84-1.67,1.18-.84,1.69a2.31,2.31,0,0,1,.84,2.52c-.34.51-2.17.17-2.17-.5s-.66.84,0,1.69-.83,2-1.16,2-2.49.34-.67,1.35a5.8,5.8,0,0,0,3.83.51s1.49-.17,2,.67-.16,1-1,1-4.83-.33-4.83-.33-1.16,1.18-.66,1.68ZM660,329.43c.83-.17,2.82-.34,3.16.17s-1.16,1.18-1.16,1.18l-2,.34C659.33,330.28,659.16,329.6,660,329.43Zm21.45-14.17c1.33-.67,4.15-.67,4-1.68s1.66-1.35,1.66-1.35l.5,2,1.5,1,.16,1.86s.5-.34-1.33.17-.66,1.35-.66,1.35l-4,.16-.5-1.68-1.33-1.86ZM675,306.15c1,0-.33,3.88,2.33,3.55s.17,1.18,2.16,1.35,1.49-1.52,2.16-2.7.33-1.86-.83-2.2-1.17-.33-1.5-1.69a2.43,2.43,0,0,0-1.66-1.68l-.5-2L675,302.1,672.79,305C672.79,307.17,674,306.15,675,306.15Zm4.4,14.26.5-1,.89.45-.5,1Zm-1.74-1.61h1V320h-1Zm.84-22.48.17,1.52-1,.11-.16-1.51Zm-2.83,15.73h1v.85h-1ZM673,312l-.1-1,1.67-.17.09,1Zm-13.71,16.22-.92-.4.5-1.18.92.4Zm-5.22-3.07-.1-1,1.67-.16.1,1Zm-32.5-.14,0,1,3.65-.17,0-1Zm-2.44,1.29-.34-1.51,1-.22.33,1.51Zm-.7,1.05-.32-1,.5-.17.31,1Zm8.31-2.85-.16,1.18,1.82.17s.83.68.83,1.18,1.17,1,1.83,1a8.23,8.23,0,0,0,2.49-1.35s.84-2.36.17-2.19-2,1.18-2.16.17-2.16-.51-2.16-.51l-2.66.34Zm8.31-1.86c0,.51-.33,1.18.66,1.35s2.83-.67,3,.34.17,1.69,1.49,2.2a8.3,8.3,0,0,0,3.16.67,29.76,29.76,0,0,0,3.16-.34,8.9,8.9,0,0,1,2.83.85c1.83,1.85,3,2.36,3.49,1.51s-.17-2.69-.33-3.37-2.5-3.88-3.33-3.21-1,0-2.49.51-4.66.17-4.82-.51-2.5-1-2.5-1.68-1.66-1.52-1.49-.51-1.16,1.52-1.5,1.18-1.33,1-1.33,1Zm38.24-21.6,1.17-3.71c-1.66-.33-1.33-2.19-1.33-2.19-.17-1.52-2.5-3.2-3.33-2.7s-.5-3.54-.5-3.54,1.5-1,2.16-.51-5.65-8.43-7-7.59-4.32-.84-4.15-2.36-6-6.58-6-6.58-2-1.35-2.32-.34-1,1.69,0,2.19.83-.84,2,.34,3.33,2.7,2.49,3.71a4.41,4.41,0,0,1-1.83,1.35l1.17,1.35h1.83l.33,2.87s2,1,2.49,2.19.5,1.86,0,2.54-1.49,1.85-1.33,3a2.46,2.46,0,0,0,1.5,1.69L662,293l1,.5v2.2c1.33-.34,3.49,1.51,3.32,2.7s.33.5,2,1.68,1.17,1.35,2.33,2.2,2.16.33,2.66-1.19Z"/><path class="cls-2" d="M645.86,278.14c-.16-.67-.5-3,.5-2.87s.33,0,1.5.51,1.33-.84,1.33-.84H651l2.32,1.85-.33,1.52-1.66.17c-.83-1.35-2.5-.84-2.16.34s-.83,3.37-1.5,3.54-2.83.17-2.66-.84.83-3.38.83-3.38Zm-1.33-4.56v-1.35s-.17-1.34-1-1.34-2.32-1-2-1.69-2.83-1.35-2.83-1.35-2.82-2.7-1.83-2.36.5-1.19.5-1.19a10.43,10.43,0,0,1-2.49.18c-.5-.18-.34-1.69-.34-1.69s-2-.51-2,0,.67.5,1,1.51.17,2.7,1.66,3,1.83.68,2,1.35,2,.84,2,.84l1.33.68,4,3.37ZM626.09,255l-1.34-.34v1.52l1.83.17Zm0-5.74c-1.74-1.32,2.32,1,2.32,1a2.11,2.11,0,0,1,2.16,1.52c0,.5,1.83.33,1.83.33l.17-1.18-1.33-1.69-1.16-.84s-1.83-.17-1.83-.67-1.5,2-2.16,1.51Zm30.58,1c-.49,1.48-.66,3.55-1.5,3.55s-.5,2.19-.5,2.19a20,20,0,0,1,2.83.17c.67.17.67,1.85.67,1.85,2.49-.16,3.49,3.21,3.16,4.05s1,.85,1,.85a14.23,14.23,0,0,1-.33,3.37c-.33.68,2.16,1.18,2.83,2.19s-.34,4.39-.84,4.56,1.33.67,1.17,1.52.5,0,.66,1.35.5,4.21.5,4.21l2.33.17c.33-2.19,4.62-2.27,5.32-2,2.82,1,5,5.4,5,6.41s-1.83,1.18-1.83,1.18l.33,4.89c2.82.85,5.15,4.9,4.82,5.57s2,.51,2,.51c.34-3,3.16-2,3.33-1s.66,3.2.66,3.2l.83,1.52,1.17,1.18,1.83-.17.5,1,2.16.34a18.62,18.62,0,0,1,2,2.53c.17.51,2.66.34,3.33.51s1.66.67,1.82,1.52a7.9,7.9,0,0,0,1.17,2.19s2,.51,2.16,1.18a15,15,0,0,0,1,2.19l1.66,1.35.16,1.52,1.83.17.5,2,3-.16,1.67-1.18c2.16-1.18,3.65-2.7,3.82-3.38s.5-3.2,2.16-2.7.5-3.71.5-3.71-2.33-1.69-2.16-2.53-2.33-2.53-2.16-3.21-2.16-2-2-2.7S714,296,714,296l-2.5-2.36-.33-1.52-2-.16-4-4.9.16-1.35-1.16-.17v-1.85L703,283l-1.83-.17-3.66-4-.33-1.86h-1.83l.33-3.54c1.17-1.52.5-4.39.5-4.39s-2.33,1.18-3.49.67.5-1.68.5-1.68v-1.35l-1-1s-2.82.33-3-.17-.66-2.7-.66-2.7l-.17-2.87-1.16-.5-.17-1-1.83.17v-2l-1-.34-1-.51-.17-2-3.66-.17-1.16-1.69-1.33-2-4.15-.34-1-1-1.66-.34-1.17-.5-.5.84-3.16.17-.16,1c-1.66.84-8.31.17-8.48.67Zm17.46-4.38c-.26-1.33,3.33-2.53,4.16-1.52s3.16,1.19,3.49,6.25c.12,1.81-3-1.86-3-1.86l-2.5-.84a2.7,2.7,0,0,1-2.16-2ZM625.36,248l-.91-.41.67-1.52.91.41Zm-8.59-16.57-2.16-2.19v-1.86l-.67-.67-.66-2.36-2.16-.68-2.17.84L606.63,226l-2.49.34-1.34,1.52,5.32.5,1,1.69,3.83.34,2.49,2.53c2.16.68,2.66-.34,1.33-1.52Zm-.33-8.27c-.37-1.48-2.49,1.86-.33,2.53a8,8,0,0,0,4.32,0l.5-1,8.31.17a4.94,4.94,0,0,0,1-1.69s2-.67,2.82-.34.17-2.36-.66-2a7,7,0,0,1-2.5.17h-3c-.16-1.18-2.82-.68-3,0s-1.16.84-1.16.84l-3.83.34c-.33,1-2.32,1.69-2.49,1ZM600,251.61c2.56.81,3.49.21,3.66-.46s.33-.85,1.33-1-.17-2.2-1.17-2a1.8,1.8,0,0,1-2.16-1.18c-.17-.84-1.83-3-2-1.35s-1.17,1.69-1,2.87.67,3,1.33,3.16Zm-19.11,1.9c-.12-.59,3.32-.67,3.82-.17s.17,1.35,1.67,1.35.83,1,.66,1.52-1.83.34-2-.16-2.66-.68-2.66-.68-1.32-1-1.49-1.86ZM636,219.77l.34-.28,1.67-1.35-.62-.79-1.32,1.06-.85-.86-.7.72,1.16,1.18Zm-7.51-4.47,1.83-1.18-.53-.85-1.57,1-1.07-.68-.52.86,1.33.84.26.17Zm-5.17,36.29.83-.55L623,249.19l-.13-.2-.24,0-1.66-.17-.1,1,1.42.14ZM567.9,296l.17,1.86h2.49c1,0-.83-1.18-.83-1.18s-2,.17-1.83-.68Zm3.17.06.64-.78,1,.84-.63.78Zm-30.29-31.57.71-.71,1,1-.71.72Zm47.59,218.8.83-.84.49-.49-.62-.32-1.66-.84-.45.9,1,.53-.34.35Zm-12.61-12.09.58-.82-.65-.47.51-.42-.64-.78-1,.84-.5.42.53.38Zm124-33.72a2,2,0,0,0-1.3-1.24l-.32,1h0a1.41,1.41,0,0,1,.31.17l.21.87a3.15,3.15,0,0,1-.22.29l.73.69a1.89,1.89,0,0,0,.59-1.73Zm-.09-3.3.13-1.52,1.62.25-.13,1.39Zm40.15-13c.71-.45,1.62-1.26,1.5.64s-.88,1.26-1.5,1.89S738.87,421.8,739.87,421.16Zm8.46-7.16s0-.15,0-.23a2.71,2.71,0,0,0-.26-1.06l-.89.45a1.76,1.76,0,0,1,.15.7,1.07,1.07,0,0,0,.35.84.79.79,0,0,0,.67.13l-.19-1a.28.28,0,0,1,.2.15Zm-2.22.83a20.86,20.86,0,0,0,.64,2.08l.94-.35a19.25,19.25,0,0,1-.61-2Zm-3.63,4-1-.1c-.08.8.11,1.78.89,1.94l.2-1h0A1.49,1.49,0,0,1,742.48,418.81Zm-4.37-20.13a.92.92,0,0,0-.54-.71,3.36,3.36,0,0,0-2.6.63l.56.84a2.78,2.78,0,0,1,1.64-.54s0,0,0,0l1-.17Zm-46-53.9a5.34,5.34,0,0,1-2.16,1l-.5,1.85-.83.68a4.05,4.05,0,0,1,0,1.68c-.17,1.18-1.66,1.86-1.66,1.86l-.67.84a30.26,30.26,0,0,1-4.48,0,1.34,1.34,0,0,1,.5-2.53c1,.17-.17-2.87-.17-2.87l1.33-.17s.16-3,.66-3-.16-1-.83-1.52-1.5-2.19-2.16-2a22.61,22.61,0,0,1-3.33,0l-.5,1-1.83.33s.16,1.31-.16,1.69c-1,1.18-4.82,3.71-3.16-.5l.5-1v-1.52l-3-.17s-1.5-.51-1.5-1.18a9.75,9.75,0,0,0-.16-1.52l-3.5-3.88-4.15-.51-.33-.84-2.49-.34c-3-1.52-5.66-.17-5.16,2.36S653.67,338,652,338a1.94,1.94,0,0,1-2-1.35s-1.32-.51-1.32.17-.5,2,0,2.7-.67,1.68-1.17,1.18-1.83-2-1.49-2.53-2.33-3.72.33-4.22-.17-2,.83-2.36l1.33-.68h1.33l.83-.67-2.16-.34-1.33-.17-2.5-.17a7.1,7.1,0,0,0-3,3.72c-1.33,2.52-4.48-1-3.32-2.37s-3.66-.17-4.49.51-3.33.34-3.33.34c-.49,1.52-2.82-.17-2.16-1.18a3.45,3.45,0,0,0,.67-1.69l-.83-.17-1,1.86c-2.32,0-3,1.34-2.49,2.19s-.67-.17-1,1,.17,1.18,1.17,1.69-.5.5.16,1.35,2.66,0,1.5,1.18-3.5.67-3.5.67c-.16,1.52-3.32,1.18-3.65.68s-2.83-3.55-2.83-3.55l-3.16-.16c-.33-2.36,1.5-1.18,2.16-3a26.8,26.8,0,0,0,1-4.89s-2.66-.17-2.82.67-1.83,1.35-1.83,1.35-1.33.51-.83,1.18-1,1-1,1,.26,1.09-.17,1.52c-1.32,1.35-4.65.17-5.15-.33l-2-.85-2-1.35-2.33,1-.66.68h-2.5l-.16,2,4.49.51.33,4.17-1.83-.63H597l-.5-1-1-.17v3.71l1,.85.83.84,1.66.17.34,2,4.15.17.5.84,2.5.17,4.82,4.89-.34,1.52-.83.51c.33,1.18-2.16.51-2.16.51v1l1.16.17,1.17.67,1.66-2.87c1.83-1.18,2.66.51,2.83,1.52s-.84.84-.84.84v2.37l1,.33a2,2,0,0,1-.66,3.21l-.5,1.69c-.5,1.51-2.33,1.18-2.33,1.18l-.66,1-2,.51,4,.5c.37-1.35,1.37-1.69,1.87-1a3.71,3.71,0,0,1,.5,1.86l1,.16-.17,1.86,1,.34v5.4l1.16,1.35c2-.85,2,.5,1,1.18s-.33,3.71-.33,3.71l-.83.84v1.35l-1,.68v1.85c-1.66-.84-3.65-.51-4.15,0-1.5-1-4.66-.67-4.66.17,1,1.35-1.16,1.69-1.16,1.69l-1.16,1.35c.83,1.68-.83,1.85-.83,1.85v3.21l-2,1.85.17,4.39c0,1.18,2.49,1.35,3,.68s2.49,1.35,2.49,1.35h1.5l.33-3-1-.51v-4.89l1.67-1.86c2-.67,1.33,4.39,1.33,4.9.16,1.85,1,1.68,1.82,1.34,1.67-.67.33,1.86-1,1.69s-.5,1.69-.5,1.69l.83.34-1.5,1.18-1.32,1.52-1.67-.51-2-.17-.67-1.18-1.16-.17-.17,2.36-.83,1-2,2c2.66,0-.34,1.85-1,1.85,1.49.51-.17,2-4,.85v1.18l-1.33.17,1.16,1.35,1.33.17-.5,2.86c0,2.2-5.48.68-6,.17l-.17,3-1,.17.17,2-.17,2.87,1.83-.34v1.19l4.49.17,6.49-6.92,3.82-.85c.33-1.69,2,.34,2,.34,1.66-.17,2,1,2,1l2.16.34c1.83.51.72.69.83,1.35.16,1,1,.68,1,.68l.33-2.2,1,.17-1-1.18-1.83-.85-2-.84c-1.34-1.85.33-1.52,1.66-1.35h2.16s2.5,3.38,2.5,4.22,1.16,1,1.16,1l1.49-.17.5,1.18h1.5l.5,1h3l.17-1.51-2.83-.51-.17-1.69-2-.5c-.67-2.87.5-3.71,1.33-2.36l1,.16-.33-2.53,1.16-.33-.33-3.55-1-.33v-1.18l4.15.17a5.87,5.87,0,0,1,.17-3.21h1.16l.17.85,5.08.48,3.6-4.13c-.18-.31.36-.51,0-.91s-1.16,0-2-.51,0-3.37-.16-4.05,2.83-1.69,2.33-.16,0,2.19,0,2.19c2.16-2,4,.17,3.82.67s1.16,1,2,.51,1.83,1.52,1.5,2.53-3.32.84-3.49-.17-.67-.67-1-.17a2.41,2.41,0,0,1-2.66.34.81.81,0,0,1-.3-.27l-3.6,4.12.24,0c2,1.18,1,2.7.33,3a5.18,5.18,0,0,1-1.83.33l-.33.68-4.32.34-.34,1.68c-2.16-.34-3,2-2.49,3.21a2.8,2.8,0,0,1,0,2.19l1.83.84,2.32-.67c.34-1.69,1.83-2,3.16-3s3.5,1.86,2.83,3.21a5.17,5.17,0,0,0-.67,1.85l.17,1.52-1.66.68-1.33.67-.17.85H627.4l-.83.84-2.16.17-.67,1-1.49.17s-2.49,1.18-1.5,2.53-4.15,1.18-5.32-.67c-.33,1.68-2.16.16-2.16.16l-1.83-.5-.16-2.53c-.33-1.69-3.49-1.69-3.32-.51s-6,.51-6,.51l-2,1-1.83,1.05-.16.85-3,.33-1.33.68-.5-1h-1.33l-1.33,1.85c-3.49.17-6.82,2.2-6.48,3s-1.33,1.69-1.33,1.69l-1.5.5-1,1.52-2,.68-.33,3.54-1,.67v1.52l-1.17.34V444l-1.66.17,1,2.53,1.33.68c2.33.34,1.33,3.21,1.33,3.21l1.33.16.67,1.86,1.32,2.7c.5,2,2,1.52,2.66,1.35s1.33,2,1.33,2l6.65.17s-.33.68.83,1,8.81.68,9.15.17c-.34-1.52,4.15-1.85,6-.5a5.24,5.24,0,0,0,4.32.5l2.5,3,1.66,3.71,2.83.84,2,.51.67,2.87,1.49.17.5,1.85c1.83,1.35-.5,4.22-.5,4.22v3.71l1.33.68-.17,1.35,2.17,2.19,2.49.17,6.32,6.75,5,1.52.83,2.7,1.34-.17,1-.85,4-.16,2-1.86,2.16-.34L670,477.22l-1.67-1V472.5c3-2.19,3.16-6.08.34-6.41-2.15-.26-1.16-2.53.83-2.87l1.16-.51v-1.52l3.83-3.54V455L666.14,448c-3.66-1.34,0-9.44,2.49-9.27s-.17-12.49-.17-12.49l-1.33-.67.34-4.05h-1.83l-3,3.88-.83,2.7c-.33,3.54-10.64,2.86-11.14,2.36a29,29,0,0,0-4-2s-2.66-2.19-3.16-1.51-2.83-.85-2.83-.34-2.16-1.18-2.16-1.18l-3.32-1.18,2.49-.51-.5-2,4.32,2.19c.5.67,2.66.51,2.66.51l.67.84a2.57,2.57,0,0,1,2.16.84c.83,1,5.15.17,5.15.17l1.17,1,1.82.68,5.16.17.16-3.2,1-1-.16-2,1.16-1v-1.69l1-.34.16-3.71.83-.17v-8.1L662,404.51c-.17.85-2.83.85-2.83.85s-.66,1.18-1.16,1.18.67,1.51.33,2.53-1.66,1-1.66,1l-2.5.67-.66.85h-2.66l-.33-2.2,3-.84,1.66-.84L656,406c.17-1.69,2.16-1.52,2.16-1.52s3.83-3.21,4-4.72,1.5-5.74,3.83-5.74h4.32c1.66-.68,1.16-2.87,1.16-2.87l2.17-.33L674,392s3,.33,3.32-.17,1-1.69,1.83-1.18,3.49-1.18,3.49-1.18c.17-1.18,4.32-.68,4.32-.68l.5-1.52s-2.82-3.88-3.32-3.88-3.16-2.36-3.49-1.52c-2.66-.67-2.49-4.38-2.49-4.38l-1-2.36c0-1.35-2.49-4.22-3-3.88-2.49-1.86-.66-4,0-4.22s2.33-2.53,2.33-2.53l.83-2.36,2.83-.84.33-2.2-1.49-.17s1.66-3,2.49-3,6.32,0,6.81-.33a9.5,9.5,0,0,0,1.5-3.55c0-.5,1.33-.67,1.83-.84a6.38,6.38,0,0,0,2-2.19c.34-.68-.82-4.9-1.49-4.23Z"/><path class="cls-2" d="M600,405.6c.25-.25.5.76,1,.64s.74.88.25.88-.5.64-.5.89a1.8,1.8,0,0,1-.38,1.26c-.37.38-.75.13-1.25-.12a2.35,2.35,0,0,0-1.37-.26c-.62,0-.12,1-.12,1s-2.62-.13-2.12-.51,1-.51.62-.76,0-.5,0-1,1.25-.25.87-.63,0-1.85.63-1l.37-.88c-.37-.38-.12-.51-.87-.76s-.13-1.77-.13-1.77l.13-1c.25-1.26,2.74-1.39,2.87-.25a8,8,0,0,1,0,1.9l.75.25s-.13.76-.75.76,0,.38-.38.76l.38.63Zm-8.23,1.27c.38-.76,1.25-4.05,2.25-3s1.62,0,1.62,0a1.63,1.63,0,0,1,.24,1.52c-.25,1-.5,2-1.12,2.15s-1.12.5-1.87.63S591.75,406.87,591.75,406.87Z"/></svg>